<svg id="svg" version="1.1" width="1000" height="236" xmlns="http://www.w3.org/2000/svg" xmlns:xlink="http://www.w3.org/1999/xlink" style="display: block;"><g id="svgg"><path id="path0" d="M41.400 6.022 C 40.389 6.216,40.978 6.251,43.000 6.116 C 44.760 5.999,46.275 5.835,46.367 5.751 C 46.644 5.500,43.111 5.692,41.400 6.022 M48.033 5.749 C 48.125 5.830,49.730 5.996,51.600 6.117 C 54.070 6.276,54.508 6.243,53.200 5.998 C 51.368 5.653,47.730 5.478,48.033 5.749 M35.800 7.200 C 35.296 7.417,35.222 7.544,35.600 7.544 C 35.930 7.544,36.560 7.389,37.000 7.200 C 37.504 6.983,37.578 6.856,37.200 6.856 C 36.870 6.856,36.240 7.011,35.800 7.200 M58.400 7.400 C 59.170 7.697,60.070 7.939,60.400 7.939 C 60.730 7.939,60.370 7.697,59.600 7.400 C 58.830 7.103,57.930 6.861,57.600 6.861 C 57.270 6.861,57.630 7.103,58.400 7.400 M29.641 9.417 C 21.864 13.065,15.009 19.244,10.356 26.800 C 9.550 28.110,8.955 29.813,9.711 28.646 C 9.980 28.232,11.029 26.612,12.042 25.046 C 16.397 18.316,23.118 12.674,30.749 9.342 C 32.427 8.609,33.530 8.014,33.200 8.019 C 32.870 8.024,31.268 8.653,29.641 9.417 M67.483 11.054 C 71.990 13.600,76.837 17.571,79.710 21.070 C 82.114 24.000,82.761 24.616,82.050 23.300 C 79.973 19.454,67.254 9.200,64.562 9.200 C 64.363 9.200,65.677 10.034,67.483 11.054 M35.660 11.300 C 35.627 11.905,35.240 12.760,34.800 13.200 C 34.360 13.640,34.152 14.000,34.338 14.000 C 35.134 14.000,36.053 12.423,35.890 11.335 L 35.720 10.200 35.660 11.300 M136.971 20.000 C 136.971 24.950,137.028 26.975,137.099 24.500 C 137.169 22.025,137.169 17.975,137.099 15.500 C 137.028 13.025,136.971 15.050,136.971 20.000 M25.950 22.900 C 22.308 28.015,19.182 32.470,19.005 32.800 C 18.179 34.338,19.944 31.988,25.617 24.000 C 28.976 19.270,32.087 14.995,32.532 14.500 C 32.976 14.005,33.167 13.600,32.957 13.600 C 32.746 13.600,29.593 17.785,25.950 22.900 M82.469 26.392 C 81.319 27.948,81.351 28.516,82.507 27.071 L 83.411 25.942 84.800 28.543 C 85.564 29.973,86.250 31.084,86.323 31.011 C 86.468 30.865,85.179 28.243,84.049 26.385 L 83.339 25.216 82.469 26.392 M55.400 26.628 C 56.500 26.934,57.580 27.169,57.800 27.150 C 58.477 27.092,55.052 26.061,54.200 26.067 C 53.760 26.069,54.300 26.322,55.400 26.628 M52.940 27.106 C 52.686 27.268,53.406 27.424,54.540 27.453 C 55.944 27.489,56.345 27.402,55.800 27.181 C 54.773 26.764,53.526 26.732,52.940 27.106 M60.200 27.828 C 61.300 28.134,62.380 28.369,62.600 28.350 C 63.277 28.292,59.852 27.261,59.000 27.267 C 58.560 27.269,59.100 27.522,60.200 27.828 M58.200 28.193 C 59.080 28.493,60.160 28.741,60.600 28.744 L 61.400 28.749 60.600 28.432 C 60.160 28.257,59.080 28.009,58.200 27.881 L 56.600 27.648 58.200 28.193 M64.400 28.735 C 65.113 29.178,69.246 30.088,69.480 29.853 C 69.570 29.764,68.688 29.474,67.522 29.210 C 66.355 28.946,65.040 28.647,64.600 28.546 C 63.975 28.402,63.931 28.443,64.400 28.735 M63.800 29.550 C 64.240 29.735,65.320 29.999,66.200 30.137 C 67.215 30.295,67.508 30.264,67.000 30.050 C 66.560 29.865,65.480 29.601,64.600 29.463 C 63.585 29.305,63.292 29.336,63.800 29.550 M7.789 32.189 C 7.177 33.630,6.761 34.894,6.864 34.997 C 6.967 35.101,7.526 33.979,8.105 32.505 C 9.472 29.028,9.234 28.790,7.789 32.189 M151.200 33.391 L 151.200 37.182 144.100 37.291 L 137.000 37.400 136.994 56.600 L 136.988 75.800 137.098 56.700 L 137.208 37.600 144.404 37.600 L 151.600 37.600 151.600 33.600 C 151.600 31.400,151.510 29.600,151.400 29.600 C 151.290 29.600,151.200 31.306,151.200 33.391 M71.800 30.628 C 72.900 30.934,73.980 31.169,74.200 31.150 C 74.877 31.092,71.452 30.061,70.600 30.067 C 70.160 30.069,70.700 30.322,71.800 30.628 M68.600 30.774 C 69.040 30.952,70.210 31.207,71.200 31.339 L 73.000 31.580 71.000 30.998 C 68.848 30.371,67.231 30.220,68.600 30.774 M83.264 31.920 C 83.196 33.324,82.293 35.392,81.598 35.734 C 81.368 35.847,81.408 35.894,81.686 35.838 C 82.586 35.656,83.663 33.316,83.491 31.917 L 83.328 30.600 83.264 31.920 M12.028 36.233 C 12.044 37.095,12.209 38.160,12.396 38.600 C 12.608 39.098,12.651 38.569,12.512 37.200 C 12.244 34.565,11.989 34.057,12.028 36.233 M87.854 35.800 C 88.274 37.703,88.848 38.846,88.556 37.200 C 88.420 36.430,88.146 35.530,87.949 35.200 C 87.714 34.808,87.681 35.016,87.854 35.800 M72.701 36.919 C 70.776 37.588,69.282 38.215,69.380 38.313 C 69.477 38.411,71.066 37.945,72.909 37.278 C 75.133 36.474,76.451 36.187,76.830 36.427 C 77.143 36.625,77.881 36.791,78.469 36.794 C 79.338 36.799,79.626 37.067,80.009 38.227 C 80.628 40.103,80.907 39.792,80.320 37.880 C 79.971 36.742,79.656 36.400,78.959 36.400 C 78.460 36.400,77.635 36.243,77.126 36.051 C 76.448 35.796,75.261 36.029,72.701 36.919 M5.800 38.000 C 5.648 38.691,5.614 39.347,5.724 39.457 C 5.834 39.567,6.048 39.091,6.200 38.400 C 6.352 37.709,6.386 37.053,6.276 36.943 C 6.166 36.833,5.952 37.309,5.800 38.000 M111.516 37.497 C 112.899 37.575,115.059 37.574,116.316 37.495 C 117.572 37.416,116.440 37.352,113.800 37.353 C 111.160 37.353,110.132 37.418,111.516 37.497 M17.949 39.077 C 17.475 39.661,17.482 39.704,18.000 39.389 C 18.330 39.189,19.050 39.061,19.600 39.106 C 20.504 39.179,20.523 39.152,19.800 38.822 C 18.669 38.305,18.563 38.320,17.949 39.077 M67.000 39.014 C 66.000 39.496,65.966 39.551,66.800 39.348 C 67.933 39.071,69.207 38.421,68.600 38.430 C 68.380 38.433,67.660 38.696,67.000 39.014 M12.998 41.100 C 12.418 41.925,10.683 44.371,9.141 46.536 C 7.599 48.700,6.399 50.533,6.474 50.607 C 6.549 50.682,8.318 48.333,10.405 45.388 C 14.363 39.802,14.957 39.309,15.621 41.055 C 15.842 41.636,16.132 42.002,16.265 41.868 C 16.637 41.497,15.258 39.600,14.617 39.600 C 14.306 39.600,13.578 40.275,12.998 41.100 M23.400 39.974 C 23.840 40.152,25.010 40.407,26.000 40.539 L 27.800 40.780 25.800 40.198 C 23.648 39.571,22.031 39.420,23.400 39.974 M62.075 40.673 C 60.466 41.229,59.221 41.754,59.307 41.841 C 59.477 42.010,65.197 40.137,65.532 39.802 C 65.900 39.433,65.030 39.653,62.075 40.673 M80.831 40.157 C 80.779 40.761,84.558 52.126,84.685 51.746 C 84.750 51.550,83.917 48.782,82.832 45.595 C 81.748 42.408,80.848 39.961,80.831 40.157 M29.800 41.428 C 30.900 41.734,32.070 41.972,32.400 41.957 C 32.730 41.941,32.100 41.678,31.000 41.372 C 29.900 41.066,28.730 40.828,28.400 40.843 C 28.070 40.859,28.700 41.122,29.800 41.428 M89.473 43.800 C 89.596 45.560,89.765 47.075,89.849 47.167 C 90.136 47.484,89.953 43.794,89.601 42.200 C 89.342 41.025,89.308 41.450,89.473 43.800 M153.666 41.959 C 153.798 42.792,162.273 52.301,162.942 52.366 C 163.131 52.385,163.978 51.851,164.824 51.181 C 165.671 50.510,167.407 49.432,168.682 48.786 C 169.957 48.139,170.745 47.608,170.432 47.605 C 169.697 47.599,165.743 49.823,164.208 51.107 L 163.016 52.103 158.520 47.352 C 156.047 44.738,154.100 42.381,154.194 42.113 C 154.288 41.845,154.178 41.510,153.949 41.368 C 153.698 41.214,153.586 41.449,153.666 41.959 M16.628 43.200 C 16.772 43.750,17.050 44.371,17.245 44.580 C 17.816 45.191,17.641 44.314,16.969 43.200 L 16.367 42.200 16.628 43.200 M36.000 42.762 C 36.330 42.953,37.410 43.216,38.400 43.347 C 39.580 43.502,39.856 43.471,39.200 43.257 C 37.545 42.718,35.334 42.376,36.000 42.762 M55.946 42.849 C 55.219 43.116,54.816 43.622,54.644 44.482 C 54.498 45.211,53.726 46.345,52.783 47.216 L 51.172 48.703 51.301 53.052 L 51.430 57.400 51.515 53.074 C 51.600 48.757,51.603 48.746,52.857 47.691 C 53.548 47.109,54.433 45.921,54.822 45.051 C 55.252 44.092,55.978 43.271,56.665 42.967 C 58.000 42.377,57.471 42.290,55.946 42.849 M4.920 44.800 C 4.920 46.010,4.995 46.505,5.087 45.900 C 5.178 45.295,5.178 44.305,5.087 43.700 C 4.995 43.095,4.920 43.590,4.920 44.800 M41.000 44.000 C 41.440 44.189,42.190 44.356,42.667 44.372 C 43.210 44.389,43.859 44.925,44.400 45.800 C 45.276 47.218,46.637 48.401,47.389 48.399 C 47.615 48.398,47.246 48.059,46.568 47.646 C 45.891 47.233,45.105 46.336,44.822 45.653 C 44.447 44.747,43.915 44.303,42.854 44.008 C 41.065 43.511,39.850 43.506,41.000 44.000 M94.881 47.600 C 94.831 49.910,94.706 52.520,94.602 53.400 L 94.412 55.000 94.819 53.409 C 95.042 52.534,95.168 49.924,95.098 47.609 L 94.970 43.400 94.881 47.600 M17.628 45.400 C 17.628 45.620,17.886 46.250,18.200 46.800 C 18.514 47.350,18.772 47.620,18.772 47.400 C 18.772 47.180,18.514 46.550,18.200 46.000 C 17.886 45.450,17.628 45.180,17.628 45.400 M177.000 46.808 C 181.680 47.539,185.108 49.777,185.246 52.191 C 185.287 52.900,185.316 52.911,185.481 52.275 C 186.077 49.971,181.475 46.835,177.123 46.581 L 174.600 46.433 177.000 46.808 M18.833 48.067 C 18.815 48.214,19.177 49.204,19.638 50.267 C 20.100 51.330,20.645 52.630,20.850 53.155 C 21.055 53.681,21.313 54.020,21.424 53.910 C 21.534 53.799,21.004 52.379,20.245 50.754 C 19.487 49.129,18.851 47.920,18.833 48.067 M241.100 48.282 C 241.595 48.378,242.405 48.378,242.900 48.282 C 243.395 48.187,242.990 48.109,242.000 48.109 C 241.010 48.109,240.605 48.187,241.100 48.282 M305.100 48.282 C 305.595 48.378,306.405 48.378,306.900 48.282 C 307.395 48.187,306.990 48.109,306.000 48.109 C 305.010 48.109,304.605 48.187,305.100 48.282 M369.100 48.282 C 369.595 48.378,370.405 48.378,370.900 48.282 C 371.395 48.187,370.990 48.109,370.000 48.109 C 369.010 48.109,368.605 48.187,369.100 48.282 M300.605 49.227 C 297.792 50.630,294.377 54.630,294.409 56.484 C 294.414 56.768,294.750 56.268,295.156 55.374 C 296.574 52.253,299.401 49.812,302.800 48.774 C 303.602 48.529,303.641 48.465,303.000 48.450 C 302.560 48.440,301.482 48.790,300.605 49.227 M47.357 54.000 C 47.357 56.970,47.420 58.185,47.497 56.700 C 47.574 55.215,47.574 52.785,47.497 51.300 C 47.420 49.815,47.357 51.030,47.357 54.000 M236.200 49.462 C 234.744 50.226,232.085 52.701,231.539 53.800 C 231.320 54.240,231.807 53.826,232.621 52.879 C 233.435 51.933,235.023 50.630,236.150 49.983 C 238.275 48.765,238.314 48.352,236.200 49.462 M247.331 49.643 C 248.173 50.088,249.696 51.295,250.714 52.326 C 252.241 53.872,252.387 53.955,251.548 52.800 C 250.510 51.370,247.075 48.786,246.255 48.818 C 246.005 48.827,246.489 49.199,247.331 49.643 M311.209 49.581 C 313.123 50.593,315.358 52.724,316.160 54.300 C 316.523 55.015,316.910 55.600,317.018 55.600 C 317.470 55.600,315.587 52.520,314.537 51.541 C 313.236 50.329,310.792 48.795,310.200 48.819 C 309.980 48.828,310.434 49.171,311.209 49.581 M363.527 49.960 C 359.966 52.219,358.045 55.778,357.787 60.597 L 357.638 63.400 358.011 60.467 C 358.683 55.198,360.611 51.988,364.400 49.833 C 365.390 49.270,366.010 48.807,365.778 48.805 C 365.546 48.802,364.533 49.322,363.527 49.960 M375.600 49.835 C 378.047 51.228,379.081 52.246,380.439 54.600 C 381.652 56.704,382.043 56.817,380.977 54.756 C 380.016 52.897,377.615 50.424,375.943 49.571 C 373.741 48.448,373.496 48.636,375.600 49.835 M89.701 50.600 C 89.705 51.480,89.787 51.793,89.883 51.295 C 89.979 50.798,89.975 50.078,89.875 49.695 C 89.775 49.313,89.696 49.720,89.701 50.600 M5.900 53.667 C 5.515 54.070,5.200 54.604,5.200 54.854 C 5.200 55.104,5.581 54.824,6.046 54.233 C 7.028 52.984,6.927 52.591,5.900 53.667 M0.040 55.033 C 0.062 55.675,0.233 56.650,0.420 57.200 C 0.649 57.874,0.684 57.549,0.528 56.200 C 0.269 53.950,-0.021 53.259,0.040 55.033 M21.628 54.600 C 21.628 54.820,21.886 55.450,22.200 56.000 C 22.514 56.550,22.772 56.820,22.772 56.600 C 22.772 56.380,22.514 55.750,22.200 55.200 C 21.886 54.650,21.628 54.380,21.628 54.600 M252.433 54.400 C 252.415 54.510,252.752 55.500,253.182 56.600 C 253.611 57.700,253.966 58.330,253.971 58.000 C 253.979 57.433,252.501 53.975,252.433 54.400 M230.379 55.855 C 230.158 56.436,230.052 56.985,230.143 57.076 C 230.233 57.167,230.499 56.692,230.733 56.020 C 231.253 54.528,230.939 54.382,230.379 55.855 M317.459 57.000 C 317.985 59.334,318.409 60.301,318.161 58.600 C 318.032 57.720,317.761 56.730,317.558 56.400 C 317.311 55.998,317.278 56.197,317.459 57.000 M22.800 57.264 C 22.800 57.373,23.490 59.068,24.333 61.031 C 25.176 62.994,25.991 64.941,26.143 65.357 C 26.295 65.774,26.506 66.028,26.612 65.921 C 26.718 65.815,25.991 63.866,24.996 61.590 C 23.334 57.790,22.800 56.739,22.800 57.264 M382.095 58.800 C 382.095 59.350,382.232 60.340,382.400 61.000 C 382.672 62.070,382.705 62.092,382.705 61.200 C 382.705 60.650,382.568 59.660,382.400 59.000 C 382.128 57.930,382.095 57.908,382.095 58.800 M93.429 59.429 C 93.281 60.015,93.238 60.572,93.332 60.666 C 93.427 60.760,93.624 60.358,93.771 59.771 C 93.919 59.185,93.962 58.628,93.868 58.534 C 93.773 58.440,93.576 58.842,93.429 59.429 M202.709 73.600 C 202.649 81.960,202.735 88.800,202.900 88.800 C 203.065 88.800,203.200 81.960,203.200 73.600 C 203.200 65.240,203.114 58.400,203.009 58.400 C 202.904 58.400,202.769 65.240,202.709 73.600 M293.720 60.800 C 293.720 62.010,293.795 62.505,293.887 61.900 C 293.978 61.295,293.978 60.305,293.887 59.700 C 293.795 59.095,293.720 59.590,293.720 60.800 M336.131 61.400 C 336.133 62.940,336.205 63.521,336.292 62.691 C 336.379 61.861,336.377 60.601,336.289 59.891 C 336.200 59.181,336.129 59.860,336.131 61.400 M339.654 61.300 C 339.625 62.785,339.736 64.000,339.903 64.000 C 340.069 64.000,340.152 63.145,340.086 62.100 C 339.879 58.813,339.711 58.502,339.654 61.300 M229.314 61.000 C 229.317 62.100,229.395 62.503,229.487 61.895 C 229.579 61.286,229.577 60.386,229.482 59.895 C 229.387 59.403,229.311 59.900,229.314 61.000 M275.728 61.600 C 275.728 63.030,275.801 63.615,275.889 62.900 C 275.978 62.185,275.978 61.015,275.889 60.300 C 275.801 59.585,275.728 60.170,275.728 61.600 M254.101 61.000 C 254.105 61.880,254.187 62.193,254.283 61.695 C 254.379 61.198,254.375 60.478,254.275 60.095 C 254.175 59.713,254.096 60.120,254.101 61.000 M1.220 60.676 C 1.166 61.952,5.223 71.600,5.812 71.600 C 5.923 71.600,5.531 70.655,4.942 69.500 C 4.352 68.345,3.278 65.780,2.555 63.800 C 1.832 61.820,1.231 60.414,1.220 60.676 M86.000 61.576 C 86.000 62.223,86.142 62.841,86.316 62.948 C 86.490 63.056,86.561 62.527,86.473 61.772 C 86.276 60.091,86.000 59.977,86.000 61.576 M46.957 67.200 C 46.957 70.170,47.020 71.385,47.097 69.900 C 47.174 68.415,47.174 65.985,47.097 64.500 C 47.020 63.015,46.957 64.230,46.957 67.200 M271.446 65.947 C 271.289 67.127,271.246 68.179,271.350 68.283 C 271.617 68.550,272.122 64.964,271.907 64.325 C 271.811 64.036,271.603 64.766,271.446 65.947 M335.693 65.600 C 335.693 66.370,335.775 66.685,335.876 66.300 C 335.976 65.915,335.976 65.285,335.876 64.900 C 335.775 64.515,335.693 64.830,335.693 65.600 M340.093 65.600 C 340.093 66.370,340.175 66.685,340.276 66.300 C 340.376 65.915,340.376 65.285,340.276 64.900 C 340.175 64.515,340.093 64.830,340.093 65.600 M50.961 70.800 C 50.961 74.210,51.022 75.605,51.097 73.900 C 51.172 72.195,51.172 69.405,51.097 67.700 C 51.022 65.995,50.961 67.390,50.961 70.800 M183.905 65.483 C 184.402 65.579,185.122 65.575,185.505 65.475 C 185.887 65.375,185.480 65.296,184.600 65.301 C 183.720 65.305,183.407 65.387,183.905 65.483 M177.505 65.883 C 178.002 65.979,178.722 65.975,179.105 65.875 C 179.487 65.775,179.080 65.696,178.200 65.701 C 177.320 65.705,177.007 65.787,177.505 65.883 M90.457 67.857 C 89.966 68.869,89.647 69.780,89.748 69.882 C 89.850 69.983,90.310 69.214,90.771 68.171 C 91.860 65.711,91.618 65.469,90.457 67.857 M174.000 66.400 C 173.205 66.914,174.204 66.914,175.400 66.400 L 176.200 66.056 175.400 66.034 C 174.960 66.022,174.330 66.187,174.000 66.400 M399.295 68.240 C 399.029 69.508,398.879 70.612,398.961 70.694 C 399.190 70.923,400.094 66.883,399.926 66.379 C 399.845 66.135,399.561 66.973,399.295 68.240 M27.035 67.000 C 27.197 67.440,27.409 68.476,27.507 69.303 C 27.605 70.129,27.816 70.886,27.976 70.985 C 28.432 71.267,27.815 67.895,27.247 67.000 L 26.740 66.200 27.035 67.000 M170.289 68.054 C 169.154 68.901,167.993 70.747,168.009 71.680 C 168.014 71.966,168.365 71.435,168.789 70.500 C 169.214 69.565,169.705 68.796,169.880 68.791 C 170.357 68.778,172.266 67.217,171.800 67.222 C 171.580 67.224,170.900 67.598,170.289 68.054 M334.913 69.441 C 334.667 70.518,334.529 71.462,334.606 71.540 C 334.829 71.762,335.663 68.390,335.504 67.912 C 335.426 67.677,335.160 68.365,334.913 69.441 M340.438 68.000 C 340.395 68.769,341.210 71.724,341.410 71.524 C 341.493 71.440,341.316 70.479,341.016 69.386 C 340.717 68.294,340.456 67.670,340.438 68.000 M276.468 68.600 C 276.462 69.040,276.611 69.760,276.800 70.200 C 277.238 71.219,277.238 70.168,276.800 68.800 C 276.543 67.996,276.477 67.957,276.468 68.600 M30.846 69.420 C 30.821 69.871,30.584 70.456,30.320 70.720 C 29.947 71.093,29.949 71.200,30.333 71.200 C 30.954 71.200,31.325 70.268,31.080 69.323 C 30.919 68.699,30.886 68.713,30.846 69.420 M87.027 74.026 C 82.867 80.497,76.218 86.499,69.011 90.288 C 67.245 91.217,65.940 91.982,66.111 91.988 C 66.698 92.010,71.384 89.496,74.193 87.652 C 79.401 84.233,85.379 77.854,88.581 72.300 C 90.366 69.203,89.532 70.130,87.027 74.026 M277.436 72.000 C 278.764 76.966,284.281 83.499,289.710 86.535 C 293.248 88.513,293.680 88.405,290.249 86.400 C 284.786 83.208,281.167 79.336,278.557 73.895 C 277.793 72.303,277.289 71.450,277.436 72.000 M397.000 74.615 C 396.120 76.442,395.598 77.771,395.841 77.569 C 396.347 77.146,398.958 71.617,398.743 71.423 C 398.664 71.352,397.880 72.789,397.000 74.615 M6.831 73.500 C 11.162 80.746,24.550 92.086,28.664 91.992 C 28.849 91.988,27.355 91.111,25.344 90.044 C 18.489 86.404,12.086 80.728,8.135 74.786 C 6.159 71.814,5.342 71.009,6.831 73.500 M333.650 73.050 C 333.386 73.629,333.262 74.195,333.374 74.307 C 333.486 74.419,333.768 74.011,334.000 73.400 C 334.549 71.957,334.273 71.682,333.650 73.050 M341.828 72.800 C 341.972 73.350,342.250 73.971,342.445 74.180 C 343.016 74.791,342.841 73.914,342.169 72.800 L 341.567 71.800 341.828 72.800 M268.404 76.321 C 265.645 81.652,260.647 86.392,255.687 88.381 C 254.965 88.671,254.456 88.990,254.557 89.090 C 255.040 89.573,261.267 85.825,263.525 83.691 C 265.724 81.613,270.018 75.085,269.516 74.583 C 269.439 74.506,268.939 75.288,268.404 76.321 M331.602 77.054 C 328.440 82.049,322.908 86.376,316.812 88.623 C 316.035 88.910,315.706 89.156,316.081 89.172 C 319.893 89.330,334.970 76.837,333.157 75.023 C 333.066 74.933,332.367 75.846,331.602 77.054 M343.868 76.900 C 345.062 79.143,349.942 84.356,351.600 85.160 C 352.212 85.457,351.980 85.141,351.000 84.346 C 348.286 82.143,345.551 79.098,344.310 76.900 C 343.657 75.745,343.040 74.800,342.937 74.800 C 342.834 74.800,343.253 75.745,343.868 76.900 M118.493 77.600 C 118.493 78.370,118.575 78.685,118.676 78.300 C 118.776 77.915,118.776 77.285,118.676 76.900 C 118.575 76.515,118.493 76.830,118.493 77.600 M393.407 80.218 C 392.150 81.751,389.431 84.033,386.142 86.315 C 385.734 86.598,386.190 86.418,387.155 85.915 C 389.013 84.946,394.147 80.420,394.826 79.152 C 395.489 77.913,394.985 78.292,393.407 80.218 M118.806 79.833 C 118.809 80.255,118.995 80.870,119.218 81.200 C 119.515 81.638,119.552 81.476,119.356 80.600 C 119.027 79.129,118.798 78.810,118.806 79.833 M150.434 82.836 C 148.112 85.474,145.172 87.565,142.600 88.407 C 141.720 88.695,141.197 88.997,141.438 89.078 C 142.905 89.571,148.244 86.045,150.980 82.775 L 152.553 80.895 153.751 82.703 C 154.903 84.442,159.201 88.002,160.144 87.998 C 160.395 87.997,159.610 87.352,158.400 86.565 C 156.485 85.319,155.016 83.802,153.098 81.090 C 152.642 80.445,152.398 80.604,150.434 82.836 M40.400 84.851 C 37.430 86.400,34.948 87.719,34.883 87.783 C 34.819 87.848,35.269 87.901,35.883 87.902 C 37.030 87.903,44.246 84.513,43.879 84.146 C 43.766 84.033,43.118 84.229,42.437 84.581 C 41.757 84.933,41.200 85.131,41.200 85.021 C 41.200 84.567,43.597 83.624,44.180 83.848 C 44.526 83.981,45.043 83.896,45.329 83.659 C 45.713 83.340,46.021 83.432,46.520 84.014 C 46.890 84.447,47.509 84.789,47.896 84.775 C 48.500 84.753,48.487 84.702,47.800 84.413 C 46.835 84.006,45.573 82.560,45.900 82.234 C 46.361 81.772,45.723 82.076,40.400 84.851 M119.619 82.200 C 119.533 84.329,126.217 90.128,128.051 89.516 C 128.303 89.432,127.744 89.112,126.810 88.803 C 124.779 88.133,121.463 85.259,120.400 83.247 C 119.979 82.451,119.628 81.980,119.619 82.200 M228.330 85.364 C 228.259 87.255,228.335 88.801,228.500 88.801 C 228.665 88.800,228.800 87.503,228.800 85.917 L 228.800 83.033 230.500 84.655 C 232.433 86.498,234.760 88.173,235.023 87.911 C 235.120 87.814,234.306 87.156,233.215 86.448 C 232.123 85.741,230.607 84.434,229.845 83.545 L 228.461 81.927 228.330 85.364 M50.000 84.080 C 49.200 84.762,49.160 84.870,49.800 84.621 C 50.240 84.450,50.913 84.219,51.296 84.109 C 51.678 83.999,51.892 83.750,51.772 83.555 C 51.449 83.032,51.111 83.132,50.000 84.080 M52.400 84.163 C 52.400 84.456,59.308 88.026,59.501 87.832 C 59.601 87.732,58.045 86.827,56.042 85.821 C 54.039 84.815,52.400 84.069,52.400 84.163 M184.625 85.174 C 184.007 85.819,182.218 87.002,180.650 87.801 C 179.083 88.601,178.250 89.132,178.800 88.982 C 181.069 88.364,187.334 84.000,185.953 84.000 C 185.841 84.000,185.244 84.528,184.625 85.174 M352.800 85.752 C 352.800 86.053,355.695 87.638,355.889 87.444 C 355.993 87.341,355.340 86.880,354.439 86.420 C 353.537 85.960,352.800 85.660,352.800 85.752 M39.200 86.190 C 39.200 86.432,36.944 87.605,36.520 87.583 C 36.344 87.574,36.830 87.222,37.600 86.800 C 39.177 85.937,39.200 85.928,39.200 86.190 M384.100 87.212 C 383.605 87.411,383.200 87.670,383.200 87.787 C 383.200 88.175,383.837 88.008,384.624 87.413 C 385.508 86.743,385.385 86.696,384.100 87.212 M357.800 88.422 C 358.680 88.838,359.670 89.175,360.000 89.171 C 360.330 89.166,359.700 88.811,358.600 88.382 C 356.096 87.404,355.692 87.424,357.800 88.422 M161.600 88.600 C 162.150 88.914,162.870 89.171,163.200 89.170 C 163.530 89.169,163.194 88.906,162.454 88.584 C 160.751 87.845,160.294 87.853,161.600 88.600 M236.400 88.600 C 236.950 88.914,237.670 89.171,238.000 89.170 C 238.330 89.169,237.994 88.906,237.254 88.584 C 235.551 87.845,235.094 87.853,236.400 88.600 M294.244 88.582 C 294.928 88.898,296.008 89.259,296.644 89.384 C 297.633 89.579,297.598 89.533,296.400 89.063 C 294.240 88.216,292.713 87.876,294.244 88.582 M380.800 88.600 C 380.030 88.897,379.670 89.145,380.000 89.152 C 380.330 89.158,381.140 88.917,381.800 88.614 C 383.345 87.907,382.626 87.897,380.800 88.600 M130.076 90.060 C 131.248 90.390,136.227 90.385,137.777 90.053 C 138.425 89.914,136.749 89.800,134.054 89.800 C 131.358 89.800,129.568 89.917,130.076 90.060 M167.400 90.047 C 168.060 90.189,169.680 90.305,171.000 90.305 C 172.320 90.305,173.940 90.189,174.600 90.047 C 175.260 89.905,173.640 89.788,171.000 89.788 C 168.360 89.788,166.740 89.905,167.400 90.047 M241.000 89.980 C 241.761 90.326,244.717 90.564,244.367 90.251 C 244.275 90.169,243.300 89.993,242.200 89.859 C 240.854 89.695,240.461 89.735,241.000 89.980 M249.000 90.000 L 247.400 90.286 249.000 90.315 C 249.880 90.331,250.960 90.189,251.400 90.000 L 252.200 89.656 251.400 89.685 C 250.960 89.701,249.880 89.842,249.000 90.000 M299.000 90.000 C 299.440 90.189,300.340 90.335,301.000 90.325 L 302.200 90.305 301.000 90.000 C 300.340 89.832,299.440 89.686,299.000 89.675 L 298.200 89.656 299.000 90.000 M310.800 90.000 C 309.443 90.286,309.437 90.295,310.600 90.307 C 311.260 90.315,312.250 90.176,312.800 90.000 C 314.112 89.580,312.796 89.580,310.800 90.000 M363.200 90.000 C 363.750 90.176,364.650 90.317,365.200 90.313 C 366.098 90.306,366.078 90.274,365.000 90.000 C 363.308 89.569,361.856 89.569,363.200 90.000 M374.800 90.000 C 373.443 90.286,373.437 90.295,374.600 90.307 C 375.260 90.315,376.250 90.176,376.800 90.000 C 378.112 89.580,376.796 89.580,374.800 90.000 M304.900 90.687 C 305.505 90.778,306.495 90.778,307.100 90.687 C 307.705 90.595,307.210 90.520,306.000 90.520 C 304.790 90.520,304.295 90.595,304.900 90.687 M368.900 90.687 C 369.505 90.778,370.495 90.778,371.100 90.687 C 371.705 90.595,371.210 90.520,370.000 90.520 C 368.790 90.520,368.295 90.595,368.900 90.687 M30.000 92.600 C 30.550 92.914,31.270 93.171,31.600 93.170 C 31.930 93.169,31.594 92.906,30.854 92.584 C 29.151 91.845,28.694 91.853,30.000 92.600 M63.800 92.614 C 62.800 93.096,62.766 93.151,63.600 92.948 C 64.733 92.671,66.007 92.021,65.400 92.030 C 65.180 92.033,64.460 92.296,63.800 92.614 M59.800 93.811 C 58.920 94.101,58.560 94.339,59.000 94.339 C 59.440 94.339,60.430 94.097,61.200 93.800 C 62.995 93.109,61.905 93.117,59.800 93.811 M34.200 94.000 C 34.640 94.189,35.270 94.344,35.600 94.344 C 35.978 94.344,35.904 94.217,35.400 94.000 C 34.960 93.811,34.330 93.656,34.000 93.656 C 33.622 93.656,33.696 93.783,34.200 94.000 " stroke="none" fill="#000000" fill-rule="evenodd"></path><path id="path1" d="M41.000 5.037 C 29.281 6.857,18.533 13.580,12.026 23.162 C 10.127 25.958,6.787 32.645,6.827 33.571 C 6.843 33.951,7.032 33.804,7.304 33.200 C 17.761 9.963,40.254 0.007,62.958 8.568 C 73.033 12.367,84.333 22.914,81.836 26.189 C 80.901 27.414,80.874 27.562,81.487 28.060 C 81.931 28.420,82.055 28.436,81.858 28.109 C 81.692 27.832,81.956 27.086,82.462 26.401 L 83.361 25.185 84.673 27.493 C 85.395 28.762,86.464 31.109,87.050 32.710 C 87.635 34.310,88.193 35.541,88.288 35.445 C 88.886 34.847,84.055 24.400,83.180 24.400 C 82.971 24.400,82.845 24.241,82.900 24.046 C 83.087 23.386,79.175 18.448,76.583 16.073 C 66.767 7.078,53.783 3.051,41.000 5.037 M211.867 6.267 C 211.328 6.806,211.559 87.391,212.101 88.133 C 212.745 89.013,228.007 88.983,228.300 88.100 C 228.430 87.711,226.642 87.600,220.233 87.600 L 212.000 87.600 212.000 47.008 L 212.000 6.415 221.100 6.300 L 230.200 6.184 221.167 6.092 C 216.198 6.041,212.013 6.120,211.867 6.267 M34.791 12.210 C 34.504 12.557,33.866 12.787,33.373 12.723 C 32.458 12.603,32.111 13.051,21.200 28.453 C 17.815 33.232,17.915 33.032,18.614 33.612 C 19.110 34.024,19.178 34.008,18.992 33.523 C 18.686 32.726,32.204 13.814,33.118 13.759 C 34.577 13.672,34.786 13.573,35.218 12.766 C 35.774 11.727,35.494 11.363,34.791 12.210 M13.781 13.700 L 12.200 15.400 13.900 13.819 C 15.481 12.348,15.784 12.000,15.481 12.000 C 15.416 12.000,14.651 12.765,13.781 13.700 M80.600 13.600 C 81.459 14.480,82.252 15.200,82.362 15.200 C 82.472 15.200,81.859 14.480,81.000 13.600 C 80.141 12.720,79.348 12.000,79.238 12.000 C 79.128 12.000,79.741 12.720,80.600 13.600 M53.145 25.867 C 52.594 26.530,51.515 26.555,50.880 25.920 C 50.220 25.260,50.270 26.069,50.946 26.994 C 51.425 27.649,51.640 27.680,52.688 27.246 C 53.970 26.715,73.827 31.201,74.494 32.172 C 74.661 32.415,74.790 32.228,74.794 31.737 C 74.799 31.050,74.625 30.921,73.937 31.100 C 73.409 31.239,73.172 31.169,73.325 30.921 C 73.481 30.668,73.166 30.593,72.488 30.722 C 71.472 30.915,71.438 30.879,71.981 30.164 C 72.436 29.565,72.441 29.508,72.001 29.900 C 71.121 30.684,69.859 30.546,70.181 29.700 C 70.395 29.139,70.348 29.099,69.944 29.500 C 69.307 30.132,68.252 30.163,68.638 29.538 C 68.818 29.247,68.748 29.185,68.447 29.371 C 67.454 29.985,64.709 29.196,65.283 28.462 C 65.750 27.864,65.729 27.856,65.070 28.374 C 64.478 28.840,64.278 28.850,64.018 28.429 C 63.758 28.008,63.656 28.013,63.480 28.455 C 63.354 28.772,63.250 28.807,63.232 28.537 C 63.213 28.264,62.847 28.167,62.337 28.300 C 61.809 28.439,61.572 28.369,61.725 28.121 C 61.881 27.868,61.566 27.793,60.888 27.922 C 59.872 28.115,59.838 28.079,60.381 27.364 C 60.836 26.765,60.841 26.708,60.401 27.100 C 59.717 27.710,58.400 27.760,58.400 27.176 C 58.400 26.943,58.568 26.856,58.772 26.983 C 58.977 27.109,59.248 27.046,59.374 26.842 C 59.633 26.423,58.575 26.492,58.145 26.922 C 57.675 27.392,56.731 27.235,57.038 26.738 C 57.214 26.455,57.148 26.385,56.869 26.558 C 56.268 26.929,53.600 26.418,53.600 25.932 C 53.600 25.723,53.768 25.656,53.972 25.783 C 54.177 25.909,54.439 25.860,54.555 25.673 C 54.900 25.114,53.624 25.289,53.145 25.867 M177.505 32.283 C 178.002 32.379,178.722 32.375,179.105 32.275 C 179.487 32.175,179.080 32.096,178.200 32.101 C 177.320 32.105,177.007 32.187,177.505 32.283 M305.105 32.283 C 305.602 32.379,306.322 32.375,306.705 32.275 C 307.087 32.175,306.680 32.096,305.800 32.101 C 304.920 32.105,304.607 32.187,305.105 32.283 M369.300 32.276 C 369.685 32.376,370.315 32.376,370.700 32.276 C 371.085 32.175,370.770 32.093,370.000 32.093 C 369.230 32.093,368.915 32.175,369.300 32.276 M82.468 33.410 C 82.215 33.967,81.735 34.527,81.403 34.654 C 81.072 34.781,80.800 35.143,80.800 35.457 C 80.800 36.421,82.227 35.383,82.799 34.002 C 83.416 32.513,83.119 31.981,82.468 33.410 M6.000 36.000 C 5.411 38.189,5.723 38.501,6.364 36.364 C 6.634 35.461,6.765 34.631,6.654 34.521 C 6.543 34.410,6.249 35.076,6.000 36.000 M69.800 36.857 C 66.720 37.985,62.220 39.618,59.800 40.486 C 55.487 42.031,54.435 42.569,54.871 43.004 C 54.990 43.124,59.658 41.585,65.244 39.585 C 70.830 37.585,75.670 35.948,76.000 35.947 C 76.330 35.947,77.334 36.068,78.231 36.217 L 79.862 36.487 81.622 41.869 C 82.591 44.828,83.430 47.104,83.488 46.925 C 83.971 45.424,79.957 35.779,78.723 35.473 C 75.846 34.759,75.287 34.846,69.800 36.857 M109.200 36.800 C 109.200 37.043,110.999 37.200,113.796 37.200 L 118.392 37.200 118.500 56.900 L 118.608 76.600 118.704 56.500 L 118.800 36.400 114.000 36.400 C 111.067 36.400,109.200 36.556,109.200 36.800 M136.800 36.900 C 136.799 37.286,138.443 37.373,144.000 37.283 C 148.232 37.214,151.200 37.007,151.200 36.783 C 151.200 36.553,148.314 36.400,144.000 36.400 C 138.507 36.400,136.800 36.519,136.800 36.900 M17.500 38.157 C 16.814 38.678,16.538 39.600,17.069 39.600 C 17.216 39.600,17.629 39.336,17.986 39.012 C 18.492 38.555,18.942 38.512,20.018 38.819 C 20.778 39.037,26.260 40.300,32.200 41.628 C 38.140 42.955,43.296 44.128,43.657 44.234 C 44.018 44.340,44.541 44.975,44.818 45.644 C 45.344 46.914,47.031 48.302,47.490 47.843 C 47.636 47.697,47.090 47.030,46.278 46.360 C 45.465 45.690,44.797 44.930,44.794 44.671 C 44.780 43.589,43.970 43.174,40.381 42.408 C 38.301 41.964,35.520 41.350,34.200 41.043 C 24.916 38.887,19.068 37.599,18.620 37.613 C 18.389 37.620,17.885 37.865,17.500 38.157 M89.062 39.000 C 89.196 39.880,89.372 40.675,89.453 40.767 C 89.756 41.110,89.529 38.968,89.181 38.200 C 88.929 37.642,88.893 37.885,89.062 39.000 M11.938 41.500 C 10.735 43.205,8.823 45.898,7.688 47.484 C 6.553 49.070,5.754 50.448,5.912 50.546 C 6.071 50.644,7.460 48.930,9.000 46.737 C 13.706 40.037,14.051 39.600,14.625 39.600 C 15.461 39.600,15.817 40.326,22.016 54.691 C 25.171 62.000,27.837 67.896,27.940 67.793 C 28.108 67.626,27.508 66.154,24.191 58.600 C 23.709 57.500,21.649 52.730,19.615 48.000 C 14.845 36.910,15.053 37.086,11.938 41.500 M154.013 42.300 C 154.021 42.465,156.049 44.738,158.521 47.352 L 163.016 52.103 164.208 51.115 C 170.884 45.582,181.137 45.072,184.736 50.094 C 185.561 51.247,185.638 51.283,185.390 50.400 C 183.781 44.688,173.287 43.965,165.713 49.044 C 162.490 51.205,163.316 51.516,158.600 46.369 C 154.902 42.333,153.978 41.513,154.013 42.300 M54.432 44.069 C 54.414 44.437,53.680 45.354,52.800 46.107 C 50.909 47.726,50.604 48.879,52.406 47.596 C 53.729 46.654,54.959 44.618,54.656 43.873 C 54.549 43.611,54.449 43.698,54.432 44.069 M4.454 47.100 C 4.425 48.695,4.535 50.000,4.700 50.000 C 4.865 50.000,4.948 49.055,4.884 47.900 C 4.691 44.379,4.512 44.046,4.454 47.100 M239.644 47.232 C 234.435 48.256,229.069 54.119,229.228 58.613 C 229.243 59.046,229.525 58.522,229.855 57.450 C 233.268 46.335,247.701 44.723,252.781 54.889 C 254.210 57.748,254.432 57.144,253.046 54.167 C 251.984 51.888,249.708 49.481,247.587 48.396 C 246.507 47.843,241.574 46.600,241.427 46.844 C 241.412 46.868,240.610 47.043,239.644 47.232 M303.678 47.227 C 298.498 48.247,293.458 53.711,293.636 58.115 C 293.656 58.619,293.886 58.226,294.171 57.200 C 297.184 46.345,311.654 44.788,316.807 54.764 C 317.442 55.994,317.970 56.768,317.981 56.484 C 318.052 54.582,314.668 50.089,312.129 48.714 C 310.682 47.930,305.623 46.519,305.427 46.844 C 305.412 46.868,304.625 47.040,303.678 47.227 M367.353 47.356 C 364.706 48.010,361.889 49.674,360.626 51.331 C 359.424 52.906,357.888 56.265,358.091 56.873 C 358.171 57.113,358.486 56.552,358.791 55.628 C 362.117 45.550,377.624 45.886,381.559 56.121 C 381.999 57.264,382.368 57.890,382.379 57.511 C 382.558 51.607,373.883 45.743,367.353 47.356 M83.663 47.800 C 83.662 48.020,83.903 48.830,84.200 49.600 C 84.497 50.370,84.745 50.730,84.752 50.400 C 84.758 50.070,84.517 49.260,84.214 48.600 C 83.912 47.940,83.664 47.580,83.663 47.800 M84.800 51.525 C 84.800 51.704,85.322 53.395,85.961 55.284 C 86.850 57.914,87.014 58.840,86.661 59.240 C 86.284 59.666,86.322 59.669,86.866 59.260 C 87.374 58.877,87.451 58.502,87.190 57.679 C 87.002 57.086,86.469 55.385,86.005 53.900 C 85.251 51.485,84.800 50.596,84.800 51.525 M5.680 52.880 C 5.102 53.458,5.056 54.000,5.586 54.000 C 5.798 54.000,6.165 53.640,6.400 53.200 C 6.872 52.319,6.435 52.125,5.680 52.880 M50.962 58.600 C 50.962 62.120,51.024 63.506,51.098 61.681 C 51.172 59.856,51.172 56.976,51.097 55.281 C 51.022 53.586,50.961 55.080,50.962 58.600 M93.649 57.000 C 93.616 57.440,93.496 58.250,93.383 58.800 L 93.177 59.800 93.606 58.819 C 93.842 58.279,93.961 57.469,93.872 57.019 C 93.713 56.221,93.707 56.221,93.649 57.000 M1.217 59.268 C 1.159 61.537,4.959 70.092,8.081 74.719 C 15.244 85.337,29.828 94.500,39.336 94.357 L 42.200 94.313 39.200 93.770 C 22.164 90.686,8.213 78.744,2.551 62.400 C 1.827 60.310,1.227 58.901,1.217 59.268 M47.320 61.200 C 47.320 62.410,47.395 62.905,47.487 62.300 C 47.578 61.695,47.578 60.705,47.487 60.100 C 47.395 59.495,47.320 59.990,47.320 61.200 M92.071 62.654 C 86.221 79.417,71.459 91.528,53.861 94.003 C 51.641 94.315,51.792 94.338,55.400 94.231 C 68.180 93.851,83.068 82.928,89.995 68.847 C 91.546 65.694,93.440 60.507,93.148 60.214 C 93.056 60.123,92.571 61.221,92.071 62.654 M271.714 62.200 C 271.717 63.300,271.795 63.703,271.887 63.095 C 271.979 62.486,271.977 61.586,271.882 61.095 C 271.787 60.603,271.711 61.100,271.714 62.200 M86.400 62.153 C 86.400 62.483,86.580 62.864,86.800 63.000 C 87.020 63.136,87.200 62.977,87.200 62.647 C 87.200 62.317,87.020 61.936,86.800 61.800 C 86.580 61.664,86.400 61.823,86.400 62.153 M177.800 64.668 C 172.194 65.358,167.994 67.835,168.001 70.447 C 168.002 70.751,168.337 70.452,168.745 69.783 C 170.521 66.870,175.667 65.465,185.476 65.212 C 185.738 65.206,186.022 65.875,186.109 66.700 C 186.252 68.074,186.271 68.041,186.333 66.300 L 186.400 64.400 182.700 64.460 C 180.665 64.493,178.460 64.586,177.800 64.668 M335.000 67.600 C 334.848 68.291,334.807 68.941,334.909 69.042 C 335.011 69.144,335.209 68.653,335.350 67.950 C 335.683 66.283,335.360 65.960,335.000 67.600 M340.468 66.800 C 340.488 67.839,341.118 69.546,341.132 68.600 C 341.138 68.160,340.989 67.440,340.800 67.000 C 340.589 66.510,340.461 66.432,340.468 66.800 M270.238 70.494 C 265.301 88.252,242.237 95.479,230.411 82.974 C 228.141 80.574,227.651 80.981,229.795 83.486 C 237.574 92.574,254.920 92.292,263.631 82.937 C 267.419 78.868,272.257 69.323,271.111 68.178 C 271.012 68.079,270.619 69.121,270.238 70.494 M28.000 70.313 C 28.000 71.026,29.182 71.407,29.931 70.935 C 31.037 70.237,30.833 69.800,29.400 69.800 C 28.528 69.800,28.000 69.993,28.000 70.313 M333.866 71.525 C 325.743 94.114,289.704 95.347,278.966 73.404 C 276.893 69.168,276.575 69.500,278.570 73.818 C 288.963 96.312,324.170 95.703,333.775 72.863 C 334.362 71.467,334.783 70.148,334.711 69.932 C 334.639 69.716,334.259 70.433,333.866 71.525 M341.413 70.595 C 345.219 88.757,372.836 96.481,389.327 83.996 C 393.466 80.863,398.806 73.165,398.799 70.341 C 398.798 70.043,397.965 71.501,396.948 73.579 C 386.289 95.364,352.154 94.254,342.223 71.800 C 341.640 70.480,341.275 69.938,341.413 70.595 M151.328 72.800 C 151.328 74.230,151.401 74.815,151.489 74.100 C 151.578 73.385,151.578 72.215,151.489 71.500 C 151.401 70.785,151.328 71.370,151.328 72.800 M46.797 75.882 C 46.689 77.907,46.743 79.420,46.917 79.245 C 47.092 79.069,47.180 77.412,47.114 75.563 L 46.994 72.200 46.797 75.882 M50.524 75.800 C 50.526 77.120,50.601 77.612,50.690 76.893 C 50.779 76.174,50.777 75.094,50.686 74.493 C 50.595 73.892,50.522 74.480,50.524 75.800 M151.475 80.538 C 143.288 91.271,125.492 92.063,120.423 81.920 C 118.998 79.068,118.763 79.645,120.143 82.608 C 124.678 92.346,141.676 92.537,150.331 82.946 L 152.667 80.359 153.697 81.879 C 159.859 90.967,176.170 92.788,184.446 85.311 L 186.000 83.907 186.000 85.677 C 186.000 88.851,185.947 88.833,194.768 88.709 C 200.546 88.628,202.577 88.472,202.700 88.100 C 202.830 87.711,201.042 87.600,194.633 87.600 L 186.400 87.600 186.400 84.809 L 186.400 82.018 184.743 83.816 C 177.840 91.304,160.494 90.185,154.541 81.868 C 153.727 80.731,152.940 79.657,152.792 79.482 C 152.644 79.306,152.051 79.782,151.475 80.538 M51.794 81.990 C 52.002 82.327,51.929 82.443,51.581 82.327 C 51.289 82.230,50.724 82.476,50.325 82.875 C 49.371 83.829,47.901 83.796,47.001 82.801 C 46.463 82.207,46.145 82.113,45.757 82.436 C 45.470 82.674,45.019 82.736,44.756 82.573 C 44.447 82.382,44.381 82.446,44.572 82.754 C 44.734 83.017,45.191 83.130,45.586 83.004 C 46.027 82.864,46.397 83.015,46.542 83.394 C 46.997 84.580,48.832 84.927,50.015 84.052 L 51.079 83.266 55.349 85.456 C 57.825 86.726,59.510 87.822,59.361 88.063 C 59.208 88.311,59.460 88.289,59.986 88.007 C 60.770 87.588,60.810 87.072,60.067 86.959 C 59.213 86.830,57.200 85.871,57.200 85.594 C 57.200 85.414,56.393 84.958,55.406 84.581 C 54.419 84.204,53.408 83.651,53.160 83.352 C 52.912 83.053,52.519 82.926,52.287 83.070 C 52.025 83.232,51.959 83.083,52.115 82.678 C 52.252 82.319,52.165 81.902,51.921 81.751 C 51.636 81.575,51.590 81.661,51.794 81.990 M42.452 84.154 C 41.931 84.443,41.066 84.631,40.530 84.573 C 39.730 84.485,39.641 84.567,40.027 85.033 C 40.595 85.717,40.962 85.786,40.558 85.132 C 40.372 84.831,40.476 84.744,40.849 84.887 C 41.168 85.009,42.052 84.777,42.814 84.371 C 43.576 83.966,44.020 83.632,43.800 83.631 C 43.580 83.630,42.973 83.865,42.452 84.154 M37.953 85.900 C 37.927 86.065,37.927 86.335,37.953 86.500 C 38.025 86.961,37.423 86.856,36.799 86.300 C 36.322 85.875,36.318 85.904,36.768 86.500 C 37.195 87.064,37.198 87.200,36.782 87.200 C 36.499 87.200,36.370 87.303,36.496 87.429 C 36.622 87.556,37.282 87.371,37.963 87.019 C 39.275 86.341,39.654 85.851,38.534 86.281 C 38.087 86.452,37.964 86.383,38.158 86.068 C 38.317 85.811,38.347 85.600,38.224 85.600 C 38.101 85.600,37.979 85.735,37.953 85.900 " stroke="none" fill="#3f3f3f" fill-rule="evenodd"></path><path id="path2" d="M44.500 0.276 C 44.885 0.376,45.515 0.376,45.900 0.276 C 46.285 0.175,45.970 0.093,45.200 0.093 C 44.430 0.093,44.115 0.175,44.500 0.276 M48.500 0.276 C 48.885 0.376,49.515 0.376,49.900 0.276 C 50.285 0.175,49.970 0.093,49.200 0.093 C 48.430 0.093,48.115 0.175,48.500 0.276 M229.695 23.178 L 229.600 40.157 231.000 38.800 C 231.770 38.054,232.400 37.355,232.400 37.247 C 232.400 37.139,231.862 37.566,231.204 38.196 L 230.009 39.341 229.900 22.771 L 229.791 6.200 229.695 23.178 M16.985 16.900 L 15.000 19.000 17.100 17.015 C 18.255 15.923,19.200 14.978,19.200 14.915 C 19.200 14.617,18.829 14.949,16.985 16.900 M118.975 25.700 L 117.800 27.000 119.100 25.825 C 119.815 25.179,120.400 24.594,120.400 24.525 C 120.400 24.216,120.070 24.488,118.975 25.700 M52.717 25.938 C 52.275 26.504,52.287 26.535,52.800 26.151 C 53.130 25.905,53.731 25.756,54.137 25.821 C 54.542 25.887,54.762 25.828,54.625 25.692 C 54.115 25.182,53.218 25.297,52.717 25.938 M60.215 27.225 C 60.462 27.625,62.400 27.949,62.400 27.590 C 62.400 27.425,61.870 27.213,61.221 27.118 C 60.573 27.023,60.120 27.071,60.215 27.225 M140.300 29.098 C 142.335 29.171,145.665 29.171,147.700 29.098 C 149.735 29.025,148.070 28.966,144.000 28.966 C 139.930 28.966,138.265 29.025,140.300 29.098 M71.815 30.025 C 72.062 30.425,74.000 30.749,74.000 30.390 C 74.000 30.225,73.470 30.013,72.821 29.918 C 72.173 29.823,71.720 29.871,71.815 30.025 M111.500 36.296 C 112.875 36.374,115.125 36.374,116.500 36.296 C 117.875 36.218,116.750 36.154,114.000 36.154 C 111.250 36.154,110.125 36.218,111.500 36.296 M140.121 36.298 C 142.277 36.371,145.697 36.370,147.721 36.298 C 149.744 36.225,147.980 36.166,143.800 36.167 C 139.620 36.167,137.964 36.226,140.121 36.298 M195.800 38.000 C 196.659 38.880,197.452 39.600,197.562 39.600 C 197.672 39.600,197.059 38.880,196.200 38.000 C 195.341 37.120,194.548 36.400,194.438 36.400 C 194.328 36.400,194.941 37.120,195.800 38.000 M12.981 38.167 C 12.992 38.699,13.145 39.278,13.321 39.455 C 13.498 39.631,13.512 39.437,13.353 39.022 C 13.142 38.471,13.200 38.353,13.572 38.583 C 13.973 38.830,13.984 38.718,13.626 38.048 C 13.047 36.966,12.959 36.982,12.981 38.167 M391.983 40.900 C 392.964 41.945,393.819 42.800,393.883 42.800 C 394.184 42.800,393.866 42.441,392.100 40.783 L 390.200 39.000 391.983 40.900 M0.093 45.200 C 0.093 45.970,0.175 46.285,0.276 45.900 C 0.376 45.515,0.376 44.885,0.276 44.500 C 0.175 44.115,0.093 44.430,0.093 45.200 M175.500 45.482 C 175.995 45.578,176.805 45.578,177.300 45.482 C 177.795 45.387,177.390 45.309,176.400 45.309 C 175.410 45.309,175.005 45.387,175.500 45.482 M397.018 48.100 C 397.168 48.595,397.455 49.176,397.656 49.391 C 397.857 49.606,397.819 49.201,397.572 48.491 C 397.065 47.038,396.597 46.708,397.018 48.100 M50.928 50.000 C 50.928 51.430,51.001 52.015,51.089 51.300 C 51.178 50.585,51.178 49.415,51.089 48.700 C 51.001 47.985,50.928 48.570,50.928 50.000 M269.267 48.820 C 269.501 49.492,269.767 49.967,269.857 49.876 C 270.056 49.678,269.301 47.600,269.031 47.600 C 268.927 47.600,269.033 48.149,269.267 48.820 M0.101 49.400 C 0.105 50.280,0.187 50.593,0.283 50.095 C 0.379 49.598,0.375 48.878,0.275 48.495 C 0.175 48.113,0.096 48.520,0.101 49.400 M185.693 52.800 C 185.693 53.570,185.775 53.885,185.876 53.500 C 185.976 53.115,185.976 52.485,185.876 52.100 C 185.775 51.715,185.693 52.030,185.693 52.800 M180.100 54.276 C 180.485 54.376,181.115 54.376,181.500 54.276 C 181.885 54.175,181.570 54.093,180.800 54.093 C 180.030 54.093,179.715 54.175,180.100 54.276 M47.720 56.400 C 47.720 57.610,47.795 58.105,47.887 57.500 C 47.978 56.895,47.978 55.905,47.887 55.300 C 47.795 54.695,47.720 55.190,47.720 56.400 M228.914 60.600 C 228.917 61.700,228.995 62.103,229.087 61.495 C 229.179 60.886,229.177 59.986,229.082 59.495 C 228.987 59.003,228.911 59.500,228.914 60.600 M254.509 60.400 C 254.509 61.390,254.587 61.795,254.682 61.300 C 254.778 60.805,254.778 59.995,254.682 59.500 C 254.587 59.005,254.509 59.410,254.509 60.400 M335.714 60.600 C 335.717 61.700,335.795 62.103,335.887 61.495 C 335.979 60.886,335.977 59.986,335.882 59.495 C 335.787 59.003,335.711 59.500,335.714 60.600 M318.501 60.600 C 318.505 61.480,318.587 61.793,318.683 61.295 C 318.779 60.798,318.775 60.078,318.675 59.695 C 318.575 59.313,318.496 59.720,318.501 60.600 M340.101 60.600 C 340.105 61.480,340.187 61.793,340.283 61.295 C 340.379 60.798,340.375 60.078,340.275 59.695 C 340.175 59.313,340.096 59.720,340.101 60.600 M47.334 66.000 C 47.334 67.650,47.405 68.325,47.491 67.500 C 47.578 66.675,47.578 65.325,47.491 64.500 C 47.405 63.675,47.334 64.350,47.334 66.000 M252.900 67.300 C 252.470 68.475,252.480 68.526,253.012 67.824 C 253.521 67.152,253.821 66.000,253.488 66.000 C 253.426 66.000,253.161 66.585,252.900 67.300 M50.534 70.800 C 50.534 72.450,50.605 73.125,50.691 72.300 C 50.778 71.475,50.778 70.125,50.691 69.300 C 50.605 68.475,50.534 69.150,50.534 70.800 M378.621 70.729 L 377.443 72.200 378.921 70.822 C 380.449 69.397,380.610 69.180,380.100 69.229 C 379.935 69.245,379.270 69.920,378.621 70.729 M314.166 71.112 C 313.487 71.710,312.587 72.428,312.166 72.706 C 311.733 72.991,311.922 72.964,312.600 72.644 C 313.260 72.331,314.236 71.609,314.770 71.038 C 316.025 69.694,315.733 69.730,314.166 71.112 M174.900 77.076 C 175.285 77.176,175.915 77.176,176.300 77.076 C 176.685 76.975,176.370 76.893,175.600 76.893 C 174.830 76.893,174.515 76.975,174.900 77.076 M82.575 78.500 L 81.400 79.800 82.700 78.625 C 83.912 77.530,84.184 77.200,83.875 77.200 C 83.806 77.200,83.221 77.785,82.575 78.500 M18.000 78.600 C 18.517 79.150,19.006 79.600,19.088 79.600 C 19.421 79.600,17.772 77.624,17.430 77.613 C 17.227 77.606,17.483 78.050,18.000 78.600 M327.600 80.600 C 326.628 81.590,325.923 82.400,326.033 82.400 C 326.143 82.400,327.028 81.590,328.000 80.600 C 328.972 79.610,329.677 78.800,329.567 78.800 C 329.457 78.800,328.572 79.610,327.600 80.600 M228.064 84.100 C 228.129 87.862,228.288 87.414,228.489 82.899 C 228.550 81.524,228.465 80.399,228.300 80.399 C 228.135 80.400,228.029 82.065,228.064 84.100 M45.673 81.687 C 45.413 81.947,45.200 82.012,45.200 81.831 C 45.200 81.650,44.975 81.685,44.700 81.908 C 44.281 82.249,39.275 84.953,35.100 87.094 C 34.495 87.405,34.000 87.730,34.000 87.817 C 34.000 88.073,35.294 87.521,36.800 86.624 C 37.570 86.166,40.000 84.905,42.200 83.823 C 46.719 81.600,46.602 81.668,46.340 81.407 C 46.234 81.300,45.934 81.426,45.673 81.687 M52.500 82.676 C 52.885 82.776,53.200 83.036,53.200 83.253 C 53.200 83.470,53.380 83.536,53.600 83.400 C 53.820 83.264,54.000 83.324,54.000 83.534 C 54.000 83.743,54.270 84.018,54.600 84.145 C 54.930 84.271,55.200 84.239,55.200 84.074 C 55.200 83.649,52.987 82.391,52.338 82.446 C 52.042 82.472,52.115 82.575,52.500 82.676 M58.122 85.798 C 58.740 86.349,59.614 86.800,60.065 86.800 C 60.662 86.800,60.817 86.979,60.634 87.457 C 60.435 87.975,60.496 88.018,60.928 87.660 C 61.228 87.411,61.621 87.340,61.801 87.503 C 61.981 87.667,62.002 87.580,61.847 87.311 C 61.693 87.042,60.854 86.630,59.983 86.395 C 59.112 86.161,58.400 85.815,58.400 85.627 C 58.400 85.439,58.085 85.176,57.700 85.041 C 57.283 84.895,57.453 85.201,58.122 85.798 M44.500 94.276 C 44.885 94.376,45.515 94.376,45.900 94.276 C 46.285 94.175,45.970 94.093,45.200 94.093 C 44.430 94.093,44.115 94.175,44.500 94.276 M48.705 94.283 C 49.202 94.379,49.922 94.375,50.305 94.275 C 50.687 94.175,50.280 94.096,49.400 94.101 C 48.520 94.105,48.207 94.187,48.705 94.283 " stroke="none" fill="#b4b4b4" fill-rule="evenodd"></path><path id="path3" d="M40.000 0.686 C 38.570 0.966,37.040 1.252,36.600 1.322 C 35.403 1.512,32.311 2.384,31.400 2.789 C 30.960 2.984,29.430 3.644,28.000 4.256 C 25.510 5.320,21.620 7.473,21.200 8.020 C 21.090 8.163,20.580 8.502,20.066 8.772 C 17.181 10.292,7.200 20.861,7.200 22.395 C 7.200 22.586,6.970 22.981,6.689 23.271 C 6.008 23.975,3.200 29.800,3.200 30.509 C 3.200 30.816,3.065 31.202,2.900 31.367 C 2.735 31.532,2.593 31.787,2.585 31.933 C 2.577 32.080,2.258 33.190,1.876 34.400 C -0.055 40.524,-0.311 52.177,1.355 58.200 C 1.451 58.548,2.435 61.850,2.607 62.400 C 5.062 70.274,14.331 82.606,20.066 85.628 C 20.580 85.898,21.090 86.237,21.200 86.380 C 21.620 86.927,25.510 89.080,28.000 90.144 C 29.430 90.756,30.960 91.416,31.400 91.611 C 32.253 91.990,35.402 92.895,36.400 93.049 C 36.730 93.099,38.440 93.392,40.200 93.698 C 42.018 94.015,45.473 94.218,48.200 94.168 C 52.390 94.092,54.105 93.895,58.778 92.953 C 73.259 90.033,88.757 75.316,92.637 60.800 C 94.955 52.127,95.170 42.694,93.212 35.600 C 92.939 34.610,92.729 33.757,92.746 33.705 C 92.762 33.653,92.427 32.796,92.000 31.800 C 91.573 30.804,91.210 29.857,91.194 29.695 C 90.889 26.729,82.662 15.001,78.892 12.157 C 78.071 11.539,77.220 10.820,77.000 10.561 C 74.804 7.970,63.748 2.441,58.778 1.449 C 58.240 1.341,56.810 1.043,55.600 0.787 C 52.521 0.134,43.137 0.073,40.000 0.686 M54.400 4.922 C 54.950 5.025,56.210 5.314,57.200 5.566 C 58.190 5.817,59.270 6.090,59.600 6.173 C 62.434 6.883,68.668 9.821,71.232 11.655 C 71.959 12.175,72.923 12.867,73.376 13.193 C 76.953 15.771,83.576 23.447,82.884 24.213 C 82.728 24.387,82.793 24.419,83.029 24.285 C 84.313 23.555,88.541 33.745,89.799 40.600 C 90.511 44.480,89.989 54.048,88.861 57.800 L 88.501 59.000 88.011 57.800 C 87.741 57.140,87.488 56.420,87.449 56.200 C 87.410 55.980,87.272 55.620,87.144 55.400 C 87.016 55.180,86.765 54.460,86.588 53.800 C 86.220 52.431,86.213 52.410,85.896 51.600 C 85.463 50.495,84.612 47.804,84.567 47.400 C 84.543 47.180,84.415 46.730,84.283 46.400 C 84.151 46.070,83.479 44.090,82.789 42.000 C 82.099 39.910,81.432 37.930,81.307 37.600 C 81.182 37.270,81.034 36.820,80.978 36.600 C 80.923 36.380,80.757 35.901,80.610 35.536 C 80.430 35.091,80.582 34.796,81.072 34.641 C 83.084 34.002,83.511 30.391,81.801 28.472 C 79.540 25.934,74.589 27.876,75.002 31.139 C 75.129 32.143,75.016 32.400,74.448 32.400 C 74.055 32.400,73.598 32.535,73.433 32.700 C 73.268 32.865,73.013 33.008,72.867 33.017 C 72.520 33.039,69.631 33.962,68.600 34.380 C 66.439 35.256,58.655 38.078,58.000 38.223 C 57.890 38.247,57.260 38.494,56.600 38.770 C 54.639 39.593,53.707 39.655,53.448 38.980 C 52.388 36.220,44.800 37.122,44.800 40.007 C 44.800 40.302,43.343 40.041,38.000 38.790 C 37.010 38.558,35.840 38.288,35.400 38.190 C 34.960 38.092,33.790 37.826,32.800 37.600 C 31.810 37.374,30.640 37.112,30.200 37.018 C 29.760 36.924,28.590 36.641,27.600 36.388 C 26.610 36.136,25.440 35.859,25.000 35.773 C 17.557 34.322,16.759 33.462,19.795 30.159 C 20.018 29.917,20.920 28.695,21.800 27.444 C 23.943 24.398,26.304 21.092,26.688 20.600 C 26.860 20.380,27.540 19.390,28.200 18.400 C 29.378 16.632,29.796 16.056,30.605 15.086 C 30.828 14.819,31.312 14.128,31.682 13.550 C 32.138 12.837,32.703 12.500,33.445 12.500 C 35.530 12.500,36.170 9.459,34.190 8.962 C 32.586 8.559,31.475 9.474,31.722 10.995 C 31.902 12.104,31.629 12.744,29.993 15.056 C 28.925 16.565,27.185 19.025,26.126 20.523 C 25.067 22.021,24.020 23.461,23.800 23.723 C 23.580 23.985,22.860 25.010,22.200 26.000 C 21.540 26.990,20.820 28.003,20.600 28.251 C 20.380 28.499,19.930 29.106,19.600 29.600 C 19.270 30.094,18.784 30.725,18.519 31.001 C 18.255 31.278,18.150 31.616,18.286 31.752 C 18.569 32.036,18.446 32.061,16.007 32.220 C 13.111 32.407,11.470 35.018,12.987 37.024 C 13.740 38.019,13.737 38.111,12.900 39.128 C 12.515 39.596,11.787 40.569,11.283 41.290 C 10.779 42.010,9.699 43.527,8.883 44.660 C 8.067 45.794,7.130 47.116,6.800 47.598 C 6.470 48.080,5.780 48.953,5.266 49.537 L 4.332 50.600 4.549 46.000 C 4.668 43.470,4.847 40.950,4.947 40.400 C 5.570 36.978,7.042 31.787,7.612 31.000 C 7.772 30.780,8.036 30.150,8.200 29.600 C 8.989 26.953,14.947 18.576,17.879 15.991 C 20.598 13.594,21.503 12.880,22.466 12.372 C 22.980 12.102,23.490 11.763,23.600 11.620 C 25.165 9.584,36.025 5.447,41.200 4.915 C 42.190 4.814,43.090 4.638,43.200 4.525 C 43.423 4.295,52.831 4.629,54.400 4.922 M212.000 47.000 L 212.000 87.600 220.000 87.600 L 228.000 87.600 228.000 84.000 C 228.000 81.867,228.163 80.400,228.400 80.400 C 228.620 80.400,228.800 80.568,228.800 80.774 C 228.800 82.156,235.597 87.175,238.336 87.815 C 238.701 87.900,240.080 88.240,241.400 88.571 C 259.704 93.152,275.586 73.622,270.651 52.600 C 270.172 50.561,267.855 45.055,267.200 44.400 C 267.090 44.290,266.375 43.300,265.612 42.200 C 263.270 38.826,258.150 34.874,255.000 34.008 C 254.574 33.891,254.006 33.716,252.400 33.209 C 251.850 33.035,250.770 32.836,250.000 32.766 C 241.994 32.039,236.410 33.709,231.600 38.267 L 229.800 39.973 229.696 23.186 L 229.591 6.400 220.796 6.400 L 212.000 6.400 212.000 47.000 M126.739 10.688 C 126.706 10.859,126.644 11.180,126.602 11.400 C 126.432 12.299,125.918 14.238,125.701 14.800 C 125.574 15.130,125.438 15.490,125.401 15.600 C 122.739 23.422,116.892 29.386,111.100 30.186 L 109.200 30.449 109.200 33.225 L 109.200 36.000 113.978 36.000 L 118.755 36.000 118.878 57.300 L 119.000 78.600 120.036 80.800 C 121.627 84.178,124.801 87.235,127.388 87.882 C 137.448 90.395,145.998 87.622,151.685 80.000 C 152.650 78.706,152.753 78.661,153.044 79.400 C 153.397 80.295,153.474 80.404,155.204 82.473 C 159.662 87.805,168.604 89.962,177.522 87.855 C 179.587 87.367,182.731 85.554,184.510 83.825 L 186.400 81.988 186.400 84.794 L 186.400 87.600 194.631 87.600 L 202.861 87.600 202.676 70.900 C 202.574 61.715,202.378 53.541,202.240 52.735 C 201.933 50.945,201.230 47.546,201.053 47.000 C 199.017 40.721,194.874 35.925,190.000 34.202 C 189.890 34.163,189.530 34.027,189.200 33.901 C 183.956 31.892,173.368 32.034,166.400 34.207 C 166.207 34.267,165.911 34.377,164.200 35.027 C 163.184 35.413,163.240 35.390,161.700 36.033 C 160.985 36.331,160.400 36.696,160.400 36.844 C 160.400 36.992,159.995 37.217,159.500 37.344 C 159.005 37.471,158.105 38.038,157.500 38.604 C 156.895 39.169,156.400 39.544,156.400 39.435 C 156.400 39.327,155.933 39.671,155.363 40.199 C 154.095 41.375,154.011 41.232,159.183 46.698 L 162.946 50.674 164.573 49.582 C 174.412 42.974,185.243 44.339,185.907 52.271 L 186.052 54.000 183.926 54.087 C 182.757 54.135,180.810 54.196,179.600 54.221 C 178.390 54.247,176.320 54.413,175.000 54.591 C 173.680 54.770,172.240 54.955,171.800 55.004 C 171.065 55.085,165.927 56.254,165.000 56.551 C 159.431 58.334,154.439 62.117,152.709 65.864 C 151.948 67.512,151.814 68.492,151.807 72.444 L 151.800 77.089 150.400 76.044 C 149.630 75.470,148.582 74.623,148.070 74.162 L 147.141 73.323 145.670 74.798 C 143.546 76.928,141.183 78.400,139.889 78.400 C 138.724 78.400,136.806 76.863,136.793 75.918 C 136.789 75.633,136.744 66.535,136.693 55.700 L 136.600 36.000 143.900 36.000 L 151.200 36.000 151.200 32.600 L 151.200 29.200 144.007 29.200 L 136.815 29.200 136.707 19.900 L 136.600 10.600 131.700 10.488 C 129.005 10.426,126.773 10.516,126.739 10.688 M51.043 24.352 C 50.416 25.046,50.413 25.156,51.010 25.752 C 52.206 26.949,53.611 25.916,52.814 24.426 C 52.267 23.405,51.914 23.390,51.043 24.352 M301.193 32.534 C 301.079 32.651,300.269 32.835,299.393 32.942 C 298.517 33.049,297.260 33.347,296.600 33.604 C 295.940 33.861,295.049 34.142,294.621 34.228 C 293.621 34.429,289.748 36.344,288.223 37.392 C 268.712 50.794,273.874 81.892,296.600 87.856 C 300.293 88.825,302.502 89.124,306.000 89.128 C 341.155 89.162,347.145 40.696,312.940 32.973 C 311.433 32.632,301.458 32.260,301.193 32.534 M365.200 32.527 C 365.090 32.636,364.460 32.811,363.800 32.916 C 362.852 33.067,360.550 33.661,358.800 34.207 C 357.569 34.591,353.513 36.451,353.046 36.847 C 352.801 37.054,351.671 37.902,350.536 38.732 C 347.631 40.853,343.701 45.693,343.010 48.000 C 342.846 48.550,342.473 49.540,342.182 50.200 C 340.445 54.145,339.856 62.965,341.043 67.265 C 341.368 68.439,341.712 69.751,341.809 70.181 C 342.671 74.006,347.312 80.292,351.472 83.270 C 359.646 89.122,368.620 90.576,379.622 87.831 C 392.871 84.526,402.200 69.440,399.430 55.800 C 398.581 51.619,398.533 51.447,397.632 49.471 C 397.175 48.466,396.800 47.540,396.800 47.413 C 396.800 44.470,385.638 35.018,381.200 34.203 C 381.090 34.182,380.280 33.919,379.400 33.618 C 378.520 33.316,377.350 32.989,376.800 32.891 C 375.246 32.613,365.424 32.304,365.200 32.527 M77.248 34.826 C 77.685 35.060,78.496 35.286,79.050 35.329 C 79.930 35.396,82.134 39.600,81.290 39.600 C 81.186 39.600,81.276 39.825,81.488 40.100 C 81.700 40.375,82.288 41.950,82.795 43.600 C 83.301 45.250,84.587 49.247,85.652 52.482 C 87.397 57.784,87.695 59.600,86.819 59.600 C 86.459 59.600,86.564 61.131,86.993 62.127 C 87.168 62.534,87.107 63.282,86.853 63.827 C 86.604 64.362,86.178 65.295,85.906 65.900 C 83.997 70.155,77.995 77.816,74.829 80.038 C 74.075 80.567,73.262 81.180,73.024 81.400 C 71.214 83.067,63.929 87.016,62.099 87.322 C 61.715 87.386,61.040 87.634,60.600 87.872 C 54.978 90.912,40.706 90.438,31.600 86.908 C 28.222 85.599,24.153 83.499,23.600 82.780 C 23.490 82.637,22.980 82.298,22.466 82.028 C 20.362 80.919,16.287 77.032,13.839 73.800 C 12.840 72.480,11.839 71.184,11.615 70.921 C 11.391 70.657,10.732 69.577,10.150 68.521 C 9.569 67.464,8.959 66.420,8.795 66.200 C 8.632 65.980,8.366 65.350,8.204 64.800 C 8.043 64.250,7.677 63.260,7.391 62.600 C 6.401 60.317,5.080 55.463,5.039 53.960 C 5.030 53.608,5.332 53.011,5.710 52.633 C 6.227 52.116,6.299 51.758,5.999 51.199 C 5.427 50.130,5.480 49.951,6.806 48.446 C 7.463 47.701,8.000 46.964,8.000 46.807 C 8.000 46.650,8.315 46.152,8.700 45.699 C 9.085 45.245,9.670 44.481,10.000 44.000 C 10.330 43.519,10.910 42.761,11.288 42.315 C 11.667 41.870,12.084 41.166,12.215 40.752 C 12.346 40.339,12.610 40.000,12.800 40.000 C 12.990 40.000,13.260 39.640,13.400 39.200 C 13.723 38.181,15.524 38.109,15.869 39.100 C 16.003 39.485,16.717 41.100,17.456 42.689 C 18.195 44.277,18.800 45.684,18.800 45.814 C 18.800 45.945,19.227 46.985,19.750 48.126 C 20.272 49.267,21.070 51.010,21.522 52.000 C 21.975 52.990,23.062 55.510,23.939 57.600 C 24.816 59.690,26.104 62.635,26.803 64.144 C 27.501 65.653,28.102 67.433,28.137 68.101 C 28.220 69.706,29.423 70.501,30.196 69.461 C 30.845 68.587,30.603 67.718,29.624 67.408 C 29.016 67.215,26.964 63.327,25.397 59.400 C 25.134 58.740,24.772 57.840,24.594 57.400 C 24.415 56.960,24.238 56.510,24.201 56.400 C 24.028 55.892,23.176 53.973,22.041 51.535 C 21.358 50.070,20.800 48.777,20.800 48.663 C 20.800 48.453,18.854 44.007,17.796 41.800 C 16.716 39.547,16.393 38.400,16.838 38.400 C 17.069 38.400,17.529 38.128,17.861 37.796 C 18.193 37.464,18.616 37.286,18.801 37.400 C 18.986 37.515,19.646 37.692,20.269 37.793 C 21.327 37.967,22.969 38.330,29.397 39.813 C 34.582 41.010,37.052 41.572,39.800 42.178 C 41.340 42.519,42.982 42.885,43.449 42.993 C 43.917 43.101,44.528 43.744,44.809 44.421 C 45.089 45.098,45.877 46.045,46.559 46.526 L 47.800 47.400 47.790 53.400 C 47.771 64.640,47.131 78.944,46.600 80.000 C 45.570 82.045,47.411 83.903,49.682 83.112 C 51.031 82.641,51.417 81.530,50.728 80.097 C 50.325 79.260,50.259 77.531,50.447 72.800 C 50.583 69.390,50.718 62.384,50.747 57.231 L 50.800 47.863 52.536 46.199 C 53.492 45.284,54.380 44.010,54.510 43.368 C 54.751 42.181,55.694 41.561,58.173 40.961 C 58.819 40.804,59.809 40.435,60.373 40.141 C 60.938 39.846,61.704 39.604,62.076 39.602 C 62.448 39.601,62.864 39.420,63.000 39.200 C 63.136 38.980,63.495 38.800,63.798 38.800 C 64.100 38.800,64.855 38.592,65.474 38.339 C 66.093 38.085,66.780 37.825,67.000 37.762 C 67.925 37.497,73.464 35.533,74.200 35.210 C 74.886 34.909,75.894 34.540,76.326 34.432 C 76.396 34.414,76.810 34.592,77.248 34.826 M247.105 47.987 C 253.339 50.699,256.076 58.320,253.665 66.249 C 253.026 68.351,249.591 72.657,249.013 72.080 C 248.896 71.963,248.800 72.049,248.800 72.273 C 248.800 74.189,239.617 74.937,236.482 73.276 C 229.209 69.421,226.385 57.665,231.484 52.469 C 231.771 52.177,232.187 51.598,232.409 51.184 C 234.337 47.582,242.228 45.865,247.105 47.987 M309.400 47.403 C 317.075 49.506,321.103 59.804,317.215 67.381 C 311.680 78.168,296.033 76.050,293.713 64.200 C 293.202 61.589,293.447 56.736,294.157 55.400 C 294.508 54.740,294.796 54.000,294.798 53.756 C 294.819 49.818,303.860 45.885,309.400 47.403 M374.200 47.578 C 381.175 49.885,384.712 58.927,381.639 66.600 C 377.049 78.059,360.453 76.477,357.784 64.326 C 357.169 61.527,357.584 56.032,358.495 54.900 C 358.717 54.625,358.784 54.400,358.645 54.400 C 358.007 54.400,361.469 49.899,362.685 49.148 C 366.251 46.943,370.521 46.361,374.200 47.578 M184.033 64.400 L 186.400 64.400 186.400 66.767 C 186.400 70.551,184.395 74.159,181.340 75.874 C 179.352 76.989,172.505 77.317,171.343 76.353 C 171.044 76.105,170.800 76.025,170.800 76.176 C 170.800 77.107,168.037 73.622,167.965 72.600 C 167.695 68.801,169.038 66.913,172.918 65.638 C 175.505 64.787,180.212 63.993,181.133 64.251 C 181.426 64.333,182.731 64.400,184.033 64.400 " stroke="none" fill="#ffffff" fill-rule="evenodd"></path></g></svg>